# xmcd
#
# Track frame offsets:
#	150
#	60525
#	116323
#	187790
#	221101
#	274269
#
# Disc length: 4129 seconds
#
# Revision: 1
# Processed by: cddbd v1.5.2PL0 Copyright (c) Steve Scherf et al.
# Submitted via: CDmax 2.0
#
DISCID=51101f06
DTITLE=Southside Blues - Blue Mondays
DYEAR=2003
DGENRE=Blues
TTITLE0=Coming Home
TTITLE1=Serve You Right To Suffer
TTITLE2=Rather Drink Muddy Water
TTITLE3=Phone Booth
TTITLE4=Driftin' and Driftin'
TTITLE5=If You See Kay
EXTD=During the 1980's, a small nightclub in Spenard was witness to a Blues r
EXTD=esurgence. The Fly By Nite Club on Monday night was the home for many as
EXTD=piring Blues players.\n\nHosted by the Southside Blues Band, musicians w
EXTD=ere welcome to jam and stretch their\nmusical muscle. Some exciting an
EXTD=d emotional playing. \n\nThese recordings are from those sessions. - Gar
EXTD=y Sloan\n\nGary Sloan - Harmonica\nLindy Raines - Guitar\nMichael McDona
EXTD=ld - Drums\nBernard Glansbeek - Bass
EXTT0=
EXTT1=
EXTT2=
EXTT3=
EXTT4=
EXTT5=
PLAYORDER=
